# xmcd CD database file
#
# Track frame offsets:
#	150
#	19312
#	28121
#	43999
#	54080
#	67195
#	81292
#	97845
#	111345
#	132988
#	143892
#	163670
#	198450
#	226917
#
# Disc length: 3230 seconds
#
# Revision: 0
# Processed by: cddbd v1.5.1PL0 Copyright (c) Steve Scherf et al.
# Submitted via: CDex 1.51
#
DISCID=c40c9c0e
DTITLE=Schabuwan - Out Of Kindness
DYEAR=2005
DGENRE=Country
TTITLE0=One More Cup Of Coffee
TTITLE1=Ain't No Sunshine
TTITLE2=How Can We Hang On To A Dream?
TTITLE3=Gues I'm Doin' Fine
TTITLE4=One Meat Ball
TTITLE5=How Can We Hang On To A Dream? (II)
TTITLE6=Mr Bojangles
TTITLE7=The Winner Takes It All
TTITLE8=Pancho and Lefty
TTITLE9=Money, Money, Money
TTITLE10=Somewhere Over The Rainbow
TTITLE11=All Along The Watchtower
TTITLE12=The Ballad Of Frankie Lee and Judas Priest
TTITLE13=Jahreswechsel
EXTD=YEAR: 2005
EXTT0=
EXTT1=
EXTT2=
EXTT3=
EXTT4=
EXTT5=
EXTT6=
EXTT7=
EXTT8=
EXTT9=
EXTT10=
EXTT11=
EXTT12=
EXTT13=
PLAYORDER=
